<?xml version="1.0" standalone="no"?>
<!DOCTYPE svg PUBLIC "-//W3C//DTD SVG 20010904//EN"
 "http://www.w3.org/TR/2001/REC-SVG-20010904/DTD/svg10.dtd">
<svg version="1.0" xmlns="http://www.w3.org/2000/svg"
 width="1000.000000pt" height="1000.000000pt" viewBox="0 0 1000.000000 1000.000000"
 preserveAspectRatio="xMidYMid meet">
<metadata>
Created by potrace 1.14, written by Peter Selinger 2001-2017
</metadata>
<g transform="translate(0.000000,1000.000000) scale(0.100000,-0.100000)"
fill="#000000" stroke="none">
<path d="M0 5000 l0 -5000 5000 0 5000 0 0 5000 0 5000 -5000 0 -5000 0 0
-5000z m4255 2629 c54 -15 98 -50 121 -96 18 -36 19 -84 24 -1071 l5 -1032
245 141 c276 160 319 177 393 160 68 -16 1324 -740 1382 -797 29 -27 45 -55
53 -86 17 -66 17 -1530 0 -1596 -8 -31 -24 -58 -53 -86 -54 -53 -1312 -780
-1378 -797 -36 -9 -58 -9 -94 0 -66 17 -1324 744 -1378 797 -29 28 -45 55 -53
86 -17 67 -17 4179 0 4245 14 57 70 116 124 131 54 14 558 15 609 1z"/>
<path d="M4698 4562 l-287 -167 0 -345 0 -345 287 -165 c158 -91 294 -165 302
-165 8 0 144 74 302 165 l287 165 0 345 1 345 -287 165 c-158 91 -294 166
-302 167 -9 1 -145 -73 -303 -165z"/>
</g>
</svg>
